<?xml version="1.0" encoding="UTF-8" standalone="no"?>
<svg width="16px" height="15px" viewBox="0 0 16 15" version="1.1" xmlns="http://www.w3.org/2000/svg" xmlns:xlink="http://www.w3.org/1999/xlink" xmlns:sketch="http://www.bohemiancoding.com/sketch/ns">
    <!-- Generator: Sketch 3.3.2 (12043) - http://www.bohemiancoding.com/sketch -->
    <title>icon-calendar</title>
    <desc>Created with Sketch.</desc>
    <defs></defs>
    <g id="V1.5-Design" stroke="none" stroke-width="1" fill="none" fill-rule="evenodd" sketch:type="MSPage">
        <g id="Payment-wFAQ" sketch:type="MSArtboardGroup" transform="translate(-830.000000, -376.000000)" fill="#999999">
            <g id="+---See-more-availab-+-Oval-109-+-Group-Copy-4" sketch:type="MSLayerGroup" transform="translate(806.000000, 296.000000)">
                <g id="Group-Copy-4" sketch:type="MSShapeGroup">
                    <path d="M35.4935714,83.5273091 C35.0628571,83.5273091 34.7142857,83.1688487 34.7142857,82.7266496 L34.7142857,80.801394 C34.7142857,80.3584604 35.0628571,80 35.4935714,80 C35.9242857,80 36.2728571,80.3584604 36.2728571,80.801394 L36.2728571,82.7266496 C36.2728571,83.1688487 35.9242857,83.5273091 35.4935714,83.5273091 Z M27.9057143,83.5273091 C27.4757143,83.5273091 27.1264286,83.1688487 27.1264286,82.7266496 L27.1264286,80.801394 C27.1264286,80.3584604 27.4757143,80 27.9057143,80 C28.3364286,80 28.685,80.3584604 28.685,80.801394 L28.685,82.7266496 C28.685,83.1688487 28.3364286,83.5273091 27.9057143,83.5273091 Z M36.9471429,81.5932389 L36.9471429,82.629689 C36.9471429,83.3737881 36.4521429,84.0642651 35.7378571,84.1839968 C34.8271429,84.3360486 34.04,83.6169242 34.04,82.7097549 L34.04,81.5932389 C34.04,81.3501029 33.8478571,81.1525089 33.6114286,81.1525089 L29.7878571,81.1525089 C29.5514286,81.1525089 29.3592857,81.3501029 29.3592857,81.5932389 L29.3592857,82.629689 C29.3592857,83.3745227 28.8642857,84.0642651 28.1492857,84.1839968 C27.2392857,84.3360486 26.4521429,83.6169242 26.4521429,82.7097549 L26.4521429,81.5932389 C26.4521429,81.3501029 26.26,81.1525089 26.0235714,81.1525089 L25.2885714,81.1525089 C24.7178571,81.1525089 24.2557143,81.6284973 24.2557143,82.2154028 L24.2557143,93.905766 C24.2557143,94.4926715 24.7178571,94.9686599 25.2885714,94.9686599 L38.0364286,94.9686599 C38.6071429,94.9686599 39.07,94.4926715 39.07,93.905766 L39.07,82.2154028 C39.07,81.6284973 38.6071429,81.1525089 38.0364286,81.1525089 L37.3757143,81.1525089 C37.1392857,81.1525089 36.9471429,81.3501029 36.9471429,81.5932389 Z M37.255,93.5619966 L26.0492857,93.5619966 C25.8114286,93.5619966 25.6178571,93.3636681 25.6178571,93.1183284 L25.6178571,85.3445858 C25.6178571,85.0992461 25.8114286,84.900183 26.0492857,84.900183 L37.255,84.900183 C37.4935714,84.900183 37.6864286,85.0992461 37.6864286,85.3445858 L37.6864286,93.1183284 C37.6864286,93.3636681 37.4935714,93.5619966 37.255,93.5619966 Z M30.7785714,88.8954005 L29.865,88.8954005 C29.53,88.8954005 29.2585714,88.6162715 29.2585714,88.271033 L29.2585714,87.3322781 C29.2585714,86.9870396 29.53,86.7079106 29.865,86.7079106 L30.7785714,86.7079106 C31.1135714,86.7079106 31.3857143,86.9870396 31.3857143,87.3322781 L31.3857143,88.271033 C31.3857143,88.6162715 31.1135714,88.8954005 30.7785714,88.8954005 Z M33.4364286,88.8954005 L32.5228571,88.8954005 C32.1878571,88.8954005 31.9157143,88.6162715 31.9157143,88.271033 L31.9157143,87.3322781 C31.9157143,86.9870396 32.1878571,86.7079106 32.5228571,86.7079106 L33.4364286,86.7079106 C33.7714286,86.7079106 34.0435714,86.9870396 34.0435714,87.3322781 L34.0435714,88.271033 C34.0435714,88.6162715 33.7714286,88.8954005 33.4364286,88.8954005 Z M36.0928571,88.8954005 L35.1792857,88.8954005 C34.8442857,88.8954005 34.5721429,88.6162715 34.5721429,88.271033 L34.5721429,87.3322781 C34.5721429,86.9870396 34.8442857,86.7079106 35.1792857,86.7079106 L36.0928571,86.7079106 C36.4278571,86.7079106 36.6992857,86.9870396 36.6992857,87.3322781 L36.6992857,88.271033 C36.6992857,88.6162715 36.4278571,88.8954005 36.0928571,88.8954005 Z M30.7785714,91.6271919 L29.865,91.6271919 C29.53,91.6271919 29.2585714,91.3473284 29.2585714,91.0028244 L29.2585714,90.063335 C29.2585714,89.718831 29.53,89.4389675 29.865,89.4389675 L30.7785714,89.4389675 C31.1135714,89.4389675 31.3857143,89.718831 31.3857143,90.063335 L31.3857143,91.0028244 C31.3857143,91.3473284 31.1135714,91.6271919 30.7785714,91.6271919 Z M28.1221429,91.6271919 L27.2092857,91.6271919 C26.8735714,91.6271919 26.6021429,91.3473284 26.6021429,91.0028244 L26.6021429,90.063335 C26.6021429,89.718831 26.8735714,89.4389675 27.2092857,89.4389675 L28.1221429,89.4389675 C28.4578571,89.4389675 28.7292857,89.718831 28.7292857,90.063335 L28.7292857,91.0028244 C28.7292857,91.3473284 28.4578571,91.6271919 28.1221429,91.6271919 Z M33.4364286,91.6271919 L32.5228571,91.6271919 C32.1878571,91.6271919 31.9157143,91.3473284 31.9157143,91.0028244 L31.9157143,90.063335 C31.9157143,89.718831 32.1878571,89.4389675 32.5228571,89.4389675 L33.4364286,89.4389675 C33.7714286,89.4389675 34.0435714,89.718831 34.0435714,90.063335 L34.0435714,91.0028244 C34.0435714,91.3473284 33.7714286,91.6271919 33.4364286,91.6271919 Z M36.0928571,91.6271919 L35.1792857,91.6271919 C34.8442857,91.6271919 34.5721429,91.3473284 34.5721429,91.0028244 L34.5721429,90.063335 C34.5721429,89.718831 34.8442857,89.4389675 35.1792857,89.4389675 L36.0928571,89.4389675 C36.4278571,89.4389675 36.6992857,89.718831 36.6992857,90.063335 L36.6992857,91.0028244 C36.6992857,91.3473284 36.4278571,91.6271919 36.0928571,91.6271919 Z" id="icon-calendar"></path>
                </g>
            </g>
        </g>
    </g>
</svg>